<svg xmlns="http://www.w3.org/2000/svg" width="123.311" height="24.699" viewBox="0 0 32.626 6.535"  fill="#0055d4" xmlns:v="https://vecta.io/nano"><path d="M3.955.544v5.857H2.85l-.063-.489q-.442.624-1.192.624-.781 0-1.192-.6Q0 5.335 0 4.294q0-.639.213-1.144.213-.505.6-.789.395-.284.9-.284.6 0 .995.395V.41zM1.981 5.62q.434 0 .726-.474V3.339q-.15-.182-.308-.268-.15-.087-.347-.087-.347 0-.553.324-.205.324-.205.995 0 .734.174 1.026.182.292.513.292zm4.196-3.41v4.191H4.93V2.21zM5.546 0q.324 0 .529.205.213.197.213.505 0 .308-.213.513-.205.197-.529.197-.324 0-.529-.197-.205-.205-.205-.513 0-.308.205-.505Q5.222 0 5.546 0zm3.877 2.091q.229 0 .418.055l-.197 1.208q-.237-.055-.379-.055-.371 0-.568.26-.189.253-.3.766v2.076H7.15V2.21h1.089l.103.813q.142-.434.426-.679.292-.253.655-.253zm5.52-.015q.497 0 .797.339.3.332.3.923V6.4h-1.247V3.552q0-.56-.355-.56-.197 0-.347.134-.15.134-.292.41v2.865h-1.247V3.552q0-.56-.355-.56-.189 0-.347.142-.15.134-.292.403v2.865H10.31V2.21h1.089l.087.489q.245-.316.537-.466.3-.158.679-.158.355 0 .608.174.26.174.379.489.253-.339.553-.497.308-.166.702-.166zm5.373 3.109q0 .237.063.347.071.111.221.166l-.26.813q-.387-.032-.631-.166-.245-.142-.379-.442-.41.631-1.263.631-.624 0-.995-.363-.371-.363-.371-.947 0-.687.505-1.05.505-.363 1.46-.363h.426v-.182q0-.371-.158-.505-.158-.142-.553-.142-.205 0-.497.063-.292.055-.6.158L17 2.382q.395-.15.805-.229.418-.079.774-.079.9 0 1.318.371.418.371.418 1.113zm-1.886.458q.426 0 .663-.403v-.742h-.308q-.426 0-.639.15-.205.15-.205.466 0 .253.126.395.134.134.363.134zM22.564.41v5.991h-1.247V.544zm2.589 1.8l-1.271 1.839 1.373 2.352H23.85l-1.247-2.289 1.279-1.902zm4.073 2.012q0 .26-.024.45h-2.597q.063.529.3.742.237.213.655.213.253 0 .489-.087.237-.095.513-.284l.513.695q-.734.584-1.634.584-1.018 0-1.563-.6-.545-.6-.545-1.61 0-.639.229-1.144.229-.513.671-.805.442-.3 1.058-.3.908 0 1.421.568.513.568.513 1.579zm-1.223-.355q-.016-.963-.679-.963-.324 0-.505.237-.174.237-.213.781h1.397zm4.205-1.776q.229 0 .418.055l-.197 1.208q-.237-.055-.379-.055-.371 0-.568.26-.189.253-.3.766v2.076h-1.247V2.21h1.089l.103.813q.142-.434.426-.679.292-.253.655-.253z"/></svg>